<mxfile host="app.diagrams.net" modified="2024-03-04T23:08:02.262Z" agent="Mozilla/5.0 (Windows NT 10.0; Win64; x64) AppleWebKit/537.36 (KHTML, like Gecko) Chrome/121.0.0.0 Safari/537.36 OPR/107.0.0.0" etag="7VNDalK9htNc26aLZZnh" version="24.0.1" type="github">
  <diagram name="Page-1" id="um_HIWCcPhuLsZuy2wrI">
    <mxGraphModel dx="1211" dy="726" grid="1" gridSize="10" guides="1" tooltips="1" connect="1" arrows="1" fold="1" page="1" pageScale="1" pageWidth="850" pageHeight="1100" math="0" shadow="0">
      <root>
        <mxCell id="0" />
        <mxCell id="1" parent="0" />
        <mxCell id="2a9DgQ8hHfNi8Au9BJch-3" value="" style="edgeStyle=orthogonalEdgeStyle;rounded=0;orthogonalLoop=1;jettySize=auto;html=1;" edge="1" parent="1" source="2a9DgQ8hHfNi8Au9BJch-1" target="2a9DgQ8hHfNi8Au9BJch-2">
          <mxGeometry relative="1" as="geometry" />
        </mxCell>
        <mxCell id="2a9DgQ8hHfNi8Au9BJch-1" value="Inicio" style="ellipse;whiteSpace=wrap;html=1;" vertex="1" parent="1">
          <mxGeometry x="295" y="280" width="120" height="80" as="geometry" />
        </mxCell>
        <mxCell id="2a9DgQ8hHfNi8Au9BJch-5" value="" style="edgeStyle=orthogonalEdgeStyle;rounded=0;orthogonalLoop=1;jettySize=auto;html=1;" edge="1" parent="1" source="2a9DgQ8hHfNi8Au9BJch-2">
          <mxGeometry relative="1" as="geometry">
            <mxPoint x="355" y="510" as="targetPoint" />
          </mxGeometry>
        </mxCell>
        <mxCell id="2a9DgQ8hHfNi8Au9BJch-2" value="Ler Num 1" style="shape=card;whiteSpace=wrap;html=1;" vertex="1" parent="1">
          <mxGeometry x="290" y="400" width="130" height="60" as="geometry" />
        </mxCell>
        <mxCell id="2a9DgQ8hHfNi8Au9BJch-10" value="" style="edgeStyle=orthogonalEdgeStyle;rounded=0;orthogonalLoop=1;jettySize=auto;html=1;" edge="1" parent="1" source="2a9DgQ8hHfNi8Au9BJch-6">
          <mxGeometry relative="1" as="geometry">
            <mxPoint x="355" y="660" as="targetPoint" />
          </mxGeometry>
        </mxCell>
        <mxCell id="2a9DgQ8hHfNi8Au9BJch-18" value="" style="edgeStyle=orthogonalEdgeStyle;rounded=0;orthogonalLoop=1;jettySize=auto;html=1;" edge="1" parent="1" source="2a9DgQ8hHfNi8Au9BJch-6" target="2a9DgQ8hHfNi8Au9BJch-17">
          <mxGeometry relative="1" as="geometry" />
        </mxCell>
        <mxCell id="2a9DgQ8hHfNi8Au9BJch-6" value="20 &amp;lt; Num 1 &amp;lt; 90" style="rhombus;whiteSpace=wrap;html=1;" vertex="1" parent="1">
          <mxGeometry x="297" y="510" width="116" height="110" as="geometry" />
        </mxCell>
        <mxCell id="2a9DgQ8hHfNi8Au9BJch-22" value="" style="edgeStyle=orthogonalEdgeStyle;rounded=0;orthogonalLoop=1;jettySize=auto;html=1;" edge="1" parent="1" source="2a9DgQ8hHfNi8Au9BJch-14" target="2a9DgQ8hHfNi8Au9BJch-20">
          <mxGeometry relative="1" as="geometry" />
        </mxCell>
        <mxCell id="2a9DgQ8hHfNi8Au9BJch-14" value="Imprimir: Num 1 está entre 20 e 90" style="shape=display;whiteSpace=wrap;html=1;" vertex="1" parent="1">
          <mxGeometry x="290" y="660" width="130" height="60" as="geometry" />
        </mxCell>
        <mxCell id="2a9DgQ8hHfNi8Au9BJch-16" value="Sim" style="text;html=1;align=center;verticalAlign=middle;resizable=0;points=[];autosize=1;strokeColor=none;fillColor=none;" vertex="1" parent="1">
          <mxGeometry x="355" y="620" width="40" height="30" as="geometry" />
        </mxCell>
        <mxCell id="2a9DgQ8hHfNi8Au9BJch-21" value="" style="edgeStyle=orthogonalEdgeStyle;rounded=0;orthogonalLoop=1;jettySize=auto;html=1;" edge="1" parent="1" source="2a9DgQ8hHfNi8Au9BJch-17" target="2a9DgQ8hHfNi8Au9BJch-20">
          <mxGeometry relative="1" as="geometry" />
        </mxCell>
        <mxCell id="2a9DgQ8hHfNi8Au9BJch-17" value="Imprimir: Num 1 não está entre 20 e 90" style="shape=display;whiteSpace=wrap;html=1;" vertex="1" parent="1">
          <mxGeometry x="450" y="535" width="130" height="60" as="geometry" />
        </mxCell>
        <mxCell id="2a9DgQ8hHfNi8Au9BJch-19" value="Não" style="text;html=1;align=center;verticalAlign=middle;resizable=0;points=[];autosize=1;strokeColor=none;fillColor=none;" vertex="1" parent="1">
          <mxGeometry x="400" y="535" width="50" height="30" as="geometry" />
        </mxCell>
        <mxCell id="2a9DgQ8hHfNi8Au9BJch-20" value="Fim" style="ellipse;whiteSpace=wrap;html=1;" vertex="1" parent="1">
          <mxGeometry x="455" y="650" width="120" height="80" as="geometry" />
        </mxCell>
      </root>
    </mxGraphModel>
  </diagram>
</mxfile>
